# xmcd
#
# Track frame offsets:
#	150
#	11570
#	21742
#	31862
#	45720
#	59685
#	71510
#	83852
#	94845
#	109807
#	121337
#	128370
#	140342
#	150780
#	162680
#	176350
#	190015
#	201515
#	213600
#	227480
#
# Disc length: 3232 seconds
#
# Revision: 1
# Processed by: cddbd v1.5.1PL0 Copyright (c) Steve Scherf et al.
# Submitted via: EasyCDDAExtractor 7.0.5.4
#
DISCID=120c9e14
DTITLE=Os Filhos De Goiás - Raízes Sertanejas
DYEAR=1900
DGENRE=
TTITLE0=Flor Paraguaia
TTITLE1=Cotovelo Do Povo
TTITLE2=Lágrimas De Sangue
TTITLE3=Saudade De Mato Grosso
TTITLE4=Pobre Esquecido
TTITLE5=Quilômetro 12
TTITLE6=Alma Ferida
TTITLE7=Não Vá Embora
TTITLE8=Morrendo De Dor
TTITLE9=Adeus Paraguaia
TTITLE10=Vem Quente Que Eu Estou Fervendo
TTITLE11=Volte Querida
TTITLE12=Quem Ama Sente Paixão
TTITLE13=Meu Consolo É Chorar
TTITLE14=Coração De Mulata
TTITLE15=Minha Vida Em Tuas Mãos
TTITLE16=Falso Amigo
TTITLE17=Cachorrão Peludo
TTITLE18=Gaiola De Pedra
TTITLE19=Quero É Você
EXTD=
EXTT0=
EXTT1=
EXTT2=
EXTT3=
EXTT4=
EXTT5=
EXTT6=
EXTT7=
EXTT8=
EXTT9=
EXTT10=
EXTT11=
EXTT12=
EXTT13=
EXTT14=
EXTT15=
EXTT16=
EXTT17=
EXTT18=
EXTT19=
PLAYORDER=
